<?xml version="1.0" encoding="UTF-8"?>
<svg id="Layer_2" data-name="Layer 2" xmlns="http://www.w3.org/2000/svg" viewBox="0 0 201.48 202.92">
  <defs>
    <style>
      .cls-1 {
        fill: #1870b9;
      }

      .cls-1, .cls-2, .cls-3, .cls-4 {
        fill-rule: evenodd;
        stroke-width: 0px;
      }

      .cls-2 {
        fill: #28aee4;
      }

      .cls-3 {
        fill: #fec010;
      }

      .cls-4 {
        fill: #f79868;
      }
    </style>
  </defs>
  <g id="Layer_1-2" data-name="Layer 1">
    <g>
      <path class="cls-1" d="m90.72,102.36c0-5.57,4.49-10.08,10.02-10.08s10.02,4.51,10.02,10.08-4.49,10.08-10.02,10.08-10.02-4.51-10.02-10.08h0Z"/>
      <path class="cls-2" d="m194.54,66.07c-1.46-3.67-3.36-6.9-6.73-7.69-1.12-.26-2.41-.25-3.9.11-6.11,1.46-7.14,6.09-6.43,11.87,1.41,11.41-5.21,19.21-16.64,19.95-4.4.29-8.82.04-13.24.04v.09h-.01l-9.93.04-3.04-.16-.97-.05-.24-.07-2.12-.21c-7.43,0-13.8,4.51-16.52,10.94l-.92,2.94-.18.9-.23,1.14s-.01.08-.02.12v.03l-.37,1.8c-1.53,3.61-4.6,6.42-8.39,7.6l-3.99.6-3.97-.6c-3.79-1.18-6.85-3.99-8.38-7.6l-.38-1.8v-.03s-.01-.08-.02-.12l-.23-1.14-.18-.9-.91-2.94c-2.72-6.43-9.09-10.94-16.51-10.94l-2.11.21-.24.07-.97.05-3.03.16-9.92-.04h-.02v-.09c-4.41,0-8.82.25-13.22-.04-11.42-.74-18.02-8.54-16.62-19.95.71-5.78-.32-10.41-6.42-11.87-1.49-.36-2.78-.37-3.9-.11-3.36.79-5.26,4.02-6.72,7.69-24.23,60.62,17.93,130.08,82.89,136.48l10.86.37,10.88-.37c65.04-6.4,107.25-75.86,82.99-136.48Zm-105.77,83.5l-.46,15.12c-1.77,11.96-13.55,18.11-24.32,12.72-16.79-8.42-29.75-20.88-38.01-37.9-5.73-11.81.94-24.1,13.92-25.01l13.45-.39h.38s.01-.01.01-.01c4.62.03,9.24.21,13.84.49,2.88.17,5.87,2.47,8.34,4.4,1.37,1.06,2.71,2.23,3.95,3.49l.24.28.16-.15h.01s-.17.15-.17.15h0s3.08,3.76,3.08,3.76c2.29,3.45,4.48,7.39,5.41,11.23.93,3.84.2,9.36.17,11.82Zm32.33-26.96l.16.15-.16-.14h0Zm54.36,16.9c-8.27,17.02-21.25,29.48-38.06,37.9-10.78,5.39-22.57-.76-24.35-12.72l-.45-15.12c-.04-2.46-.77-7.98.16-11.82.93-3.84,3.12-7.78,5.42-11.23l3.09-3.75.24-.29c1.23-1.26,2.58-2.43,3.95-3.49,2.47-1.93,5.47-4.23,8.35-4.4,4.6-.28,9.23-.46,13.85-.49h.39s13.47.4,13.47.4c13,.91,19.67,13.2,13.94,25.01Z"/>
      <path class="cls-3" d="m100.6,0c25.59-.16,47.81,8.56,66.89,25.44.82.73,1.66,1.45,2.36,2.3,2.88,3.46,3.88,7.88.24,10.48-2.23,1.59-7.28,1.41-9.89-.05-9.7-5.45-18.3-13.29-28.45-17.47-27.65-11.4-54.28-7.73-79.19,8.77-4.49,2.97-4.64,5.94-.73,9.45,1.63,1.47,3.19,3.04,4.65,4.68,2.93,3.3,5.71,3.63,9.79,1.27,25.41-14.67,53.88-12.49,75.8,5.45.68.55,1.41,1.08,2.01,1.71,3.25,3.42,4.51,7.38,1.15,11.16-3.21,3.6-6.88,2.25-10.72.09-7.77-4.36-15.45-9.38-23.83-12.05-14.74-4.7-28.19.05-40.2,9.09-9.83,7.38-10.99,7.33-19.76-1.59-5.7-5.81-11.48-11.55-17.25-17.28-6.25-6.21-6.1-10.62.69-16.5C53.21,8.43,75.27-.13,100.6.02h0V0h0Z"/>
      <path class="cls-4" d="m79.44,68.11c-5.54,2.76-6.41,8.5-1.93,12.77l15.04,14.33c4.48,4.26,11.8,4.26,16.28,0l15.04-14.33c4.48-4.26,3.61-10.01-1.93-12.77l-11.17-5.56c-5.54-2.76-14.6-2.76-20.14,0l-11.17,5.56h0Z"/>
    </g>
  </g>
</svg>